<svg
  width="219.95999603271486"
  height="46.60728131594285"
  viewBox="0 0 370.13653136531366 78.42815854608722"
  class="css-1j8o68f"
  xmlns="http://www.w3.org/2000/svg"
>
  <defs id="SvgjsDefs4854"></defs>
  <g
    id="SvgjsG4855"
    featurekey="symbolFeature-0"
    transform="matrix(1.041542673491251,0,0,1.041542673491251,-3.6453993572193784,-12.810975082600887)"
    fill="#000000"
  >
    <metadata xmlns="http://www.w3.org/2000/svg">
      <sfw xmlns="http://ns.adobe.com/SaveForWeb/1.0/">
        <slices>
          <slicesourcebounds
            width="1449"
            height="1446.4"
            y="-1446.7"
            x="0.5"
            bottomleftorigin="true"
          ></slicesourcebounds>
        </slices>
      </sfw>
    </metadata>
    <path
      xmlns="http://www.w3.org/2000/svg"
      d="M89.3,87.6c4,0,7.2-3.2,7.2-7.2V19.5c0-4-3.2-7.2-7.2-7.2H10.7c-4,0-7.2,3.2-7.2,7.2v60.9c0,4,3.2,7.2,7.2,7.2H89.3z   M10.7,17.4h78.5c1.2,0,2.2,1,2.2,2.2v10.4H8.6V19.5C8.6,18.3,9.5,17.4,10.7,17.4z M8.6,80.5V34.9h82.9v45.5c0,1.2-1,2.2-2.2,2.2  H10.7C9.5,82.6,8.6,81.7,8.6,80.5z M21.9,23.6c0-1.7,1.4-3,3-3s3,1.4,3,3c0,1.7-1.4,3-3,3S21.9,25.3,21.9,23.6z M31.9,23.6  c0-1.7,1.4-3,3-3s3,1.4,3,3c0,1.7-1.4,3-3,3S31.9,25.3,31.9,23.6z M11.9,23.6c0-1.7,1.4-3,3-3c1.7,0,3,1.4,3,3c0,1.7-1.4,3-3,3  C13.3,26.7,11.9,25.3,11.9,23.6z M62.4,68.8L74,59l-11.6-9.8c-1.1-0.9-1.2-2.5-0.3-3.5c0.9-1.1,2.5-1.2,3.5-0.3l13.8,11.7  c0.6,0.5,0.9,1.2,0.9,1.9s-0.3,1.4-0.9,1.9L65.6,72.6c-0.5,0.4-1,0.6-1.6,0.6c-0.7,0-1.4-0.3-1.9-0.9C61.2,71.3,61.3,69.7,62.4,68.8  z M20.6,60.9c-0.6-0.5-0.9-1.2-0.9-1.9s0.3-1.4,0.9-1.9l13.8-11.7c1.1-0.9,2.6-0.8,3.5,0.3c0.9,1.1,0.8,2.6-0.3,3.5L26,59l11.6,9.8  c1.1,0.9,1.2,2.5,0.3,3.5c-0.5,0.6-1.2,0.9-1.9,0.9c-0.6,0-1.1-0.2-1.6-0.6L20.6,60.9z M41.8,72.7l11.7-29.3c0.5-1.3,2-1.9,3.3-1.4  c1.3,0.5,1.9,2,1.4,3.3L46.4,74.6c-0.4,1-1.3,1.6-2.3,1.6c-0.3,0-0.6-0.1-0.9-0.2C41.9,75.4,41.3,74,41.8,72.7z"
    ></path>
  </g>
  <g
    id="SvgjsG4856"
    featurekey="nameFeature-0"
    transform="matrix(1.1420655927766372,0,0,1.1420655927766372,116.45180822139439,-11.65910562233355)"
    fill="#000000"
  >
    <path
      d="M8.8 40 l-6.04 -15.44 c-0.16 -0.4 -0.28 -0.6 -0.52 -0.88 l-1.76 -1.88 l0 -1.12 l7.52 0 l0 1.12 l-0.56 1.2 c-0.32 0.68 -0.32 1.44 -0.04 2.2 l5 12.68 l5.08 -13.16 c0.36 -1 0.16 -2.12 -0.52 -2.8 l0 -1.24 l4.76 0 l0 1.24 l-1.52 1 c-0.48 0.32 -0.8 0.8 -0.96 1.24 l-6.12 15.84 l-4.32 0 z M36.314 40 l-1.08 -0.28 c-1.8 -0.48 -3.76 -0.48 -5.44 0.04 c-0.68 0.2 -1.32 0.24 -1.96 0.24 c-3.92 0 -7.04 -3.08 -7.04 -6.96 c0 -3.8 3.12 -6.92 7.04 -6.92 c1.56 0 2.96 0.48 4.04 1.24 l0 -0.04 s0.32 -4.88 -1.84 -5.48 c-2.24 -0.64 -3.04 0.68 -4.68 3.16 l-3.36 -0.04 c1.04 -2.64 3.08 -4.48 5.96 -4.48 c1.08 0 2.2 0.2 3.28 0.52 c0 0 5.08 1.56 5.08 6.32 l0 12.68 z M24.034 34.04 c0.92 3 3.2 5.12 5.52 4.6 c2.24 -0.52 3.28 -3.44 2.36 -6.56 c-0.88 -2.96 -3.48 -5.08 -5.72 -4.52 c-2.28 0.56 -3.08 3.44 -2.16 6.48 z M38.147999999999996 38.36 l0 -2.84 l1.32 0 l1.56 1.68 c1.04 1.12 2.28 1.56 4.04 1.52 c1.6 0 4.04 -0.6 4.04 -2.08 c0 -1.88 -3.64 -4.16 -5.8 -5.44 c-1.88 -1.08 -5.16 -2.96 -5.16 -5.24 c0 -4.36 5.08 -5.44 6.56 -5.44 c1.88 0 3.76 0.44 5.76 1.36 l0 2.76 l-1.44 0 l-1.16 -1.32 c-0.84 -0.96 -2.04 -1.6 -3.36 -1.56 c-1.2 0 -3.44 0.92 -3.44 2.32 c0 1.64 3.88 2.88 7.92 5.64 c2.44 1.64 3.56 3.68 3.56 5.52 c0 2.64 -2.24 4.88 -6.08 4.88 c-5 0 -8.32 -1.76 -8.32 -1.76 z M51.70199999999999 43.72 l0 -3.72 l1.32 0 l2.56 2.6 s0.84 0.88 1.88 0.88 c0.56 0 1.16 -0.28 1.76 -1.04 l5 -6.56 l-7.6 -11.88 c-0.16 -0.28 -0.4 -0.48 -0.64 -0.64 l-2.36 -1.56 l0 -1.12 l8.12 0 l0 1.12 l-0.2 0.24 c-0.64 0.68 -0.76 1.84 -0.2 2.68 l5.04 8.12 l5.44 -7.96 c0.24 -0.36 0.4 -0.8 0.4 -1.24 c0 -0.68 -0.28 -1.32 -0.84 -1.72 l0 -1.24 l5.2 0 l0 1.24 l-1.12 0.68 c-0.24 0.16 -0.44 0.4 -0.6 0.6 l-14.56 20.32 s-2.32 2.72 -4.48 2.72 c-1.2 0 -2.6 -0.64 -4.12 -2.52 z M75.73599999999999 40 l0 -1.08 c1.2 -1.4 1.92 -3.32 1.92 -5.24 l0 -15.32 c0 -1.92 -0.72 -3.8 -1.88 -5.16 l0 -1.2 l5.88 0 l0 21.72 c0 1.88 0.72 3.8 1.96 5.2 l0 1.08 l-7.88 0 z M97.844 32.96 l0 -10.64 l-2.96 0 l0 -1.64 l2.96 0 l0 -6.64 l4.36 -2.08 l0 8.72 l2.88 0 l0 1.64 l-2.88 0 l0 10.4 c0 1.56 0.6 2.92 1.36 3.92 c0.44 0.6 0.96 1.04 1.52 1.36 l0 2.2 c-0.92 -0.04 -1.88 -0.24 -2.88 -0.64 c-2.32 -0.96 -4.36 -2.92 -4.36 -6.6 z M105.99799999999999 38.36 l0 -2.84 l1.32 0 l1.56 1.68 c1.04 1.12 2.28 1.56 4.04 1.52 c1.6 0 4.04 -0.6 4.04 -2.08 c0 -1.88 -3.64 -4.16 -5.8 -5.44 c-1.88 -1.08 -5.16 -2.96 -5.16 -5.24 c0 -4.36 5.08 -5.44 6.56 -5.44 c1.88 0 3.76 0.44 5.76 1.36 l0 2.76 l-1.44 0 l-1.16 -1.32 c-0.84 -0.96 -2.04 -1.6 -3.36 -1.56 c-1.2 0 -3.44 0.92 -3.44 2.32 c0 1.64 3.88 2.88 7.92 5.64 c2.44 1.64 3.56 3.68 3.56 5.52 c0 2.64 -2.24 4.88 -6.08 4.88 c-5 0 -8.32 -1.76 -8.32 -1.76 z M134.152 30.64 l-0.04 -5.4 c0 -0.84 -0.44 -2.4 -1.4 -3.56 l0 -1 l4.24 0 c-0.28 -3.36 -2.64 -5.08 -4.72 -5.84 c-1.2 -0.44 -2.48 -0.68 -4.04 -0.68 l-1.76 0 c0.4 0.52 0.64 1.16 0.64 1.88 c0 1.48 -1.24 2.76 -2.76 2.76 c-1.56 0 -2.8 -1.28 -2.8 -2.76 c0 -1.6 1.24 -2.8 2.8 -2.8 l3.88 0 c1.64 0 3.08 0.24 4.44 0.72 c2.36 0.88 5.28 3.12 5.28 6.72 l0 13.12 c0.04 2.68 2.48 4.28 5.12 4.28 c3.96 0 4.84 -2.64 4.84 -5.2 l0 -8 c0 -1.16 -0.44 -2.32 -1.36 -3.08 l0 -1.12 l4.52 0 l0 1.12 c-1.08 1.16 -1.48 2.16 -1.48 3.24 l0 8.6 c0 1.56 -0.32 6.56 -6.6 6.56 c-5 0 -8.72 -1.48 -8.8 -9.56 z M121.192 40 l0 -1.2 c1.24 -1.36 1.8 -3.24 1.8 -5.16 l0 -6.6 c0 -1.92 -0.56 -3.8 -1.8 -5.2 l0 -1.16 l5.6 0 l0 12.96 c0 1.96 0.68 3.8 1.8 5.2 l0 1.16 l-7.4 0 z M154.066 32.96 l0 -10.64 l-2.96 0 l0 -1.64 l2.96 0 l0 -6.64 l4.36 -2.08 l0 8.72 l2.88 0 l0 1.64 l-2.88 0 l0 10.4 c0 1.56 0.6 2.92 1.36 3.92 c0.44 0.6 0.96 1.04 1.52 1.36 l0 2.2 c-0.92 -0.04 -1.88 -0.24 -2.88 -0.64 c-2.32 -0.96 -4.36 -2.92 -4.36 -6.6 z M162.22 38.36 l0 -2.84 l1.32 0 l1.56 1.68 c1.04 1.12 2.28 1.56 4.04 1.52 c1.6 0 4.04 -0.6 4.04 -2.08 c0 -1.88 -3.64 -4.16 -5.8 -5.44 c-1.88 -1.08 -5.16 -2.96 -5.16 -5.24 c0 -4.36 5.08 -5.44 6.56 -5.44 c1.88 0 3.76 0.44 5.76 1.36 l0 2.76 l-1.44 0 l-1.16 -1.32 c-0.84 -0.96 -2.04 -1.6 -3.36 -1.56 c-1.2 0 -3.44 0.92 -3.44 2.32 c0 1.64 3.88 2.88 7.92 5.64 c2.44 1.64 3.56 3.68 3.56 5.52 c0 2.64 -2.24 4.88 -6.08 4.88 c-5 0 -8.32 -1.76 -8.32 -1.76 z M175.774 43.72 l0 -3.72 l1.32 0 l2.56 2.6 s0.84 0.88 1.88 0.88 c0.56 0 1.16 -0.28 1.76 -1.04 l5 -6.56 l-7.6 -11.88 c-0.16 -0.28 -0.4 -0.48 -0.64 -0.64 l-2.36 -1.56 l0 -1.12 l8.12 0 l0 1.12 l-0.2 0.24 c-0.64 0.68 -0.76 1.84 -0.2 2.68 l5.04 8.12 l5.44 -7.96 c0.24 -0.36 0.4 -0.8 0.4 -1.24 c0 -0.68 -0.28 -1.32 -0.84 -1.72 l0 -1.24 l5.2 0 l0 1.24 l-1.12 0.68 c-0.24 0.16 -0.44 0.4 -0.6 0.6 l-14.56 20.32 s-2.32 2.72 -4.48 2.72 c-1.2 0 -2.6 -0.64 -4.12 -2.52 z M199.728 40 l0 -1.08 c1.36 -1.48 2.08 -3.32 2.08 -5.16 l0 -15.4 c0 -1.92 -0.72 -3.84 -2.08 -5.2 l0 -1.16 l6.4 0 l0 16.44 l7.4 -5.8 l-0.28 -1.28 l0 -0.68 l6 0 l0 0.68 l-3.08 1.28 l-7.2 5.72 l2.04 -0.08 l7.64 8.36 c0.08 0.12 0.48 0.4 0.68 0.52 l2.8 1.76 l0 1.08 l-8.48 0 l0 -1.08 c1 -0.68 1.28 -2.12 0.52 -3.04 l-5.76 -7.08 l-2.28 1.8 l0 3.2 c0 1.88 0.68 3.64 2.04 5.12 l0 1.08 l-8.44 0 z"
    ></path>
  </g>
  <g
    id="SvgjsG4857"
    featurekey="sloganFeature-0"
    transform="matrix(1.0249931397071474,0,0,1.0249931397071474,115.25751161362237,55.0140394189539)"
    fill="#000000"
  >
    <path
      d="M10.55 18.3 c0.18 0 0.3 0.12 0.3 0.3 l0 1.1 c0 0.18 -0.12 0.3 -0.3 0.3 l-8.55 0 c-0.18 0 -0.3 -0.12 -0.3 -0.3 l0 -13.4 c0 -0.18 0.12 -0.3 0.3 -0.3 l8.53 0 c0.18 0 0.3 0.12 0.3 0.3 l0 1.1 c0 0.18 -0.12 0.3 -0.3 0.3 l-6.96 0 l0 4.15 l6.43 0 c0.18 0 0.3 0.12 0.3 0.3 l0 1.1 c0 0.18 -0.12 0.3 -0.3 0.3 l-6.43 0 l0 4.75 l6.98 0 z M25.0405 6 c0.18 0 0.3 0.12 0.3 0.3 l0 13.4 c0 0.16 -0.1 0.28 -0.25 0.3 l-1.64 0 c-0.16 0 -0.28 -0.06 -0.36 -0.2 l-6.44 -11.04 l0 10.94 c0 0.18 -0.12 0.3 -0.3 0.3 l-1.27 0 c-0.18 0 -0.3 -0.12 -0.3 -0.3 l0 -13.4 c0 -0.17 0.1 -0.28 0.26 -0.3 l1.63 0 c0.16 0 0.28 0.06 0.36 0.2 l6.44 11.03 l0 -10.93 c0 -0.18 0.12 -0.3 0.3 -0.3 l1.27 0 z M38.821 6 c0.18 0 0.3 0.12 0.3 0.3 l0 8.66 c0 3.69 -2.13 5.33 -5 5.33 c-2.84 0 -4.91 -1.55 -5.05 -5.03 c-0.01 -0.2 0.12 -0.3 0.3 -0.3 l1.24 0 c0.18 0 0.3 0.1 0.3 0.3 c0.13 2.24 1.39 3.26 3.21 3.26 c1.81 0 3.13 -1.05 3.13 -3.56 l0 -7.26 l-5.89 0 c-0.18 0 -0.3 -0.12 -0.3 -0.3 l0 -1.1 c0 -0.18 0.12 -0.3 0.3 -0.3 l7.46 0 z M49.921499999999995 20.26 c-3.96 0 -7.17 -3.2 -7.17 -7.2 c0 -4.02 3.21 -7.22 7.17 -7.22 c3.95 0 7.16 3.2 7.16 7.22 c0 4 -3.21 7.2 -7.16 7.2 z M49.921499999999995 18.49 c2.97 0 5.32 -2.4 5.32 -5.43 c0 -3.05 -2.35 -5.45 -5.32 -5.45 c-2.98 0 -5.33 2.4 -5.33 5.45 c0 3.03 2.35 5.43 5.33 5.43 z M72.152 6 c0.24 0 0.33 0.15 0.2 0.36 l-5.25 8.21 l0 5.13 c0 0.18 -0.12 0.3 -0.3 0.3 l-1.27 0 c-0.18 0 -0.3 -0.12 -0.3 -0.3 l0 -5.13 l-5.26 -8.21 c-0.13 -0.21 -0.04 -0.36 0.2 -0.36 l1.47 0 c0.16 0 0.27 0.06 0.36 0.2 l4.16 6.51 l4.16 -6.51 c0.09 -0.14 0.2 -0.2 0.36 -0.2 l1.47 0 z M101.29299999999999 6 c0.22 0 0.29 0.14 0.24 0.34 l-3.57 13.42 c-0.04 0.16 -0.2 0.24 -0.36 0.24 l-1.53 0 c-0.16 0 -0.31 -0.08 -0.36 -0.24 l-3.17 -10.57 l-3.17 10.57 c-0.05 0.16 -0.19 0.24 -0.35 0.24 l-1.54 0 c-0.16 0 -0.32 -0.08 -0.36 -0.24 l-3.53 -13.42 c-0.06 -0.21 0.02 -0.34 0.24 -0.34 l1.29 0 c0.16 0 0.3 0.06 0.34 0.24 l2.83 11.41 l3.32 -11.41 c0.03 -0.11 0.09 -0.17 0.16 -0.21 c0.04 -0.02 0.1 -0.03 0.16 -0.03 l1.23 0 c0.06 0 0.12 0.01 0.16 0.03 c0.07 0.04 0.13 0.1 0.16 0.21 l3.32 11.41 l2.86 -11.41 c0.05 -0.18 0.18 -0.24 0.34 -0.24 l1.29 0 z M115.6135 6 c0.18 0 0.3 0.12 0.3 0.3 l0 13.4 c0 0.18 -0.12 0.3 -0.3 0.3 l-1.27 0 c-0.18 0 -0.3 -0.12 -0.3 -0.3 l0 -5.99 l-7.09 0 l0 5.99 c0 0.18 -0.12 0.3 -0.3 0.3 l-1.27 0 c-0.18 0 -0.3 -0.12 -0.3 -0.3 l0 -13.4 c0 -0.18 0.12 -0.3 0.3 -0.3 l1.27 0 c0.18 0 0.3 0.12 0.3 0.3 l0 5.71 l7.09 0 l0 -5.71 c0 -0.18 0.12 -0.3 0.3 -0.3 l1.27 0 z M131.414 19.66 c0.08 0.2 -0.02 0.34 -0.24 0.34 l-1.29 0 c-0.16 0 -0.27 -0.06 -0.34 -0.24 l-0.99 -2.69 l-6.42 0 l-0.99 2.69 c-0.07 0.18 -0.18 0.24 -0.34 0.24 l-1.29 0 c-0.22 0 -0.32 -0.14 -0.24 -0.34 l5.08 -13.42 c0.06 -0.16 0.2 -0.24 0.36 -0.24 l1.26 0 c0.16 0 0.3 0.08 0.36 0.24 z M122.744 15.42 l5.2 0 l-2.6 -7.08 z M144.5745 6 c0.18 0 0.3 0.12 0.3 0.3 l0 1.1 c0 0.18 -0.12 0.3 -0.3 0.3 l-4.19 0 l0 12 c0 0.18 -0.12 0.3 -0.3 0.3 l-1.27 0 c-0.18 0 -0.3 -0.12 -0.3 -0.3 l0 -12 l-4.19 0 c-0.18 0 -0.3 -0.12 -0.3 -0.3 l0 -1.1 c0 -0.18 0.12 -0.3 0.3 -0.3 l10.25 0 z M168.27550000000002 6 c0.24 0 0.33 0.15 0.2 0.36 l-5.25 8.21 l0 5.13 c0 0.18 -0.12 0.3 -0.3 0.3 l-1.27 0 c-0.18 0 -0.3 -0.12 -0.3 -0.3 l0 -5.13 l-5.26 -8.21 c-0.13 -0.21 -0.04 -0.36 0.2 -0.36 l1.47 0 c0.16 0 0.27 0.06 0.36 0.2 l4.16 6.51 l4.16 -6.51 c0.09 -0.14 0.2 -0.2 0.36 -0.2 l1.47 0 z M178.536 20.26 c-3.96 0 -7.17 -3.2 -7.17 -7.2 c0 -4.02 3.21 -7.22 7.17 -7.22 c3.95 0 7.16 3.2 7.16 7.22 c0 4 -3.21 7.2 -7.16 7.2 z M178.536 18.49 c2.97 0 5.32 -2.4 5.32 -5.43 c0 -3.05 -2.35 -5.45 -5.32 -5.45 c-2.98 0 -5.33 2.4 -5.33 5.45 c0 3.03 2.35 5.43 5.33 5.43 z M200.2565 6 c0.18 0 0.3 0.12 0.3 0.3 l0 8.04 c0 3.98 -2.15 5.95 -5.67 5.95 c-3.51 0 -5.66 -1.97 -5.66 -5.95 l0 -8.04 c0 -0.18 0.12 -0.3 0.3 -0.3 l1.27 0 c0.18 0 0.3 0.12 0.3 0.3 l0 8.04 c0 2.83 1.5 4.18 3.79 4.18 c2.3 0 3.8 -1.35 3.8 -4.18 l0 -8.04 c0 -0.18 0.12 -0.3 0.3 -0.3 l1.27 0 z M216.8175 6 c4.85 0 7.33 3.05 7.33 7 c0 3.94 -2.48 7 -7.33 7 l-3.35 0 c-0.18 0 -0.3 -0.12 -0.3 -0.3 l0 -13.4 c0 -0.18 0.12 -0.3 0.3 -0.3 l3.35 0 z M216.8175 18.3 c3.63 0 5.43 -2.01 5.43 -5.3 c0 -3.3 -1.8 -5.3 -5.43 -5.3 l-1.78 0 l0 10.6 l1.78 0 z M234.448 20.26 c-3.96 0 -7.17 -3.2 -7.17 -7.2 c0 -4.02 3.21 -7.22 7.17 -7.22 c3.95 0 7.16 3.2 7.16 7.22 c0 4 -3.21 7.2 -7.16 7.2 z M234.448 18.49 c2.97 0 5.32 -2.4 5.32 -5.43 c0 -3.05 -2.35 -5.45 -5.32 -5.45 c-2.98 0 -5.33 2.4 -5.33 5.45 c0 3.03 2.35 5.43 5.33 5.43 z"
    ></path>
  </g>
</svg>
